<svg xmlns="http://www.w3.org/2000/svg" width="1280" height="640" viewBox="0 0 1280 640" role="img" aria-label="Agent Context Center social preview">
  <defs>
    <linearGradient id="accent" x1="0" y1="0" x2="1" y2="0">
      <stop offset="0" stop-color="#00c781"/>
      <stop offset="1" stop-color="#08b6af"/>
    </linearGradient>
    <filter id="shadow" x="-20%" y="-20%" width="140%" height="140%">
      <feDropShadow dx="0" dy="22" stdDeviation="26" flood-color="#000000" flood-opacity=".38"/>
    </filter>
  </defs>

  <rect width="1280" height="640" fill="#05080c"/>
  <rect x="0" y="0" width="10" height="640" fill="url(#accent)"/>
  <path d="M50 92 C242 28 372 118 530 72 C708 20 826 86 1002 58 C1126 38 1200 58 1240 88" fill="none" stroke="#102935" stroke-width="2"/>
  <path d="M42 560 C232 500 388 590 560 530 C722 474 840 552 1030 512 C1142 488 1202 510 1240 538" fill="none" stroke="#11302f" stroke-width="2"/>

  <g font-family="system-ui, -apple-system, 'Segoe UI', Roboto, sans-serif">
    <text x="96" y="154" fill="#08b6af" font-size="26" font-weight="800">AGENT CONTEXT CENTER</text>
    <text x="96" y="238" fill="#f1efe4" font-size="76" font-weight="800">Make AI context</text>
    <text x="96" y="322" fill="#00c781" font-size="76" font-weight="800">reviewable.</text>

    <text x="96" y="416" fill="#f1efe4" font-size="34" font-weight="600">AGENTS.md + CLAUDE.md + Cursor + MCP</text>
    <text x="96" y="464" fill="#9fb0bd" font-size="29" font-weight="400">one offline, deterministic, redacted dashboard.html</text>

    <rect x="838" y="132" width="328" height="350" rx="24" fill="#f1efe4" filter="url(#shadow)"/>
    <rect x="870" y="164" width="264" height="48" rx="12" fill="#0c131b"/>
    <circle cx="896" cy="188" r="7" fill="#00c781"/>
    <circle cx="922" cy="188" r="7" fill="#08b6af"/>
    <circle cx="948" cy="188" r="7" fill="#5d6e7a"/>
    <rect x="870" y="244" width="118" height="20" rx="6" fill="#00c781"/>
    <rect x="1006" y="244" width="82" height="20" rx="6" fill="#08b6af"/>
    <rect x="870" y="294" width="238" height="13" rx="7" fill="#1c2733"/>
    <rect x="870" y="328" width="196" height="13" rx="7" fill="#5d6e7a"/>
    <rect x="870" y="380" width="240" height="58" rx="14" fill="#d9efe7"/>
    <text x="898" y="418" fill="#061018" font-size="23" font-weight="800" font-family="ui-monospace, 'SF Mono', Menlo, monospace">dashboard.html</text>

    <text x="96" y="566" fill="#5d6e7a" font-size="24" font-weight="400">static &#183; offline &#183; source-linked &#183; no telemetry</text>
  </g>
</svg>
